<svg xmlns="http://www.w3.org/2000/svg" width="500" height="280" viewBox="0 0 500 280" font-family="JetBrains Mono, Fira Code, SF Mono, Cascadia Code, Menlo, Consolas, monospace">
<defs><filter id="glow" x="-30%" y="-30%" width="160%" height="160%"><feGaussianBlur stdDeviation="2.4" result="b"/><feMerge><feMergeNode in="b"/><feMergeNode in="SourceGraphic"/></feMerge></filter></defs>
<rect width="500" height="280" rx="12" fill="#0A0E12" stroke="#1E3530" stroke-width="1.5"/><text x="18" y="30" font-size="12.5" font-weight="700" letter-spacing="2" fill="#2DE0A5">SIGNAL SPECTRUM</text><line x1="14" y1="42" x2="486" y2="42" stroke="#1E3530"/><text x="18" y="68" font-size="12" fill="#E6F2EC">Python</text><rect x="150" y="58" width="148" height="10" rx="2" fill="#3572A5"/><text x="308" y="68" font-size="11.5" fill="#7E948C">59.3%</text><text x="18" y="94" font-size="12" fill="#E6F2EC">Dart</text><rect x="150" y="84" width="72" height="10" rx="2" fill="#00B4AB"/><text x="232" y="94" font-size="11.5" fill="#7E948C">28.7%</text><text x="18" y="120" font-size="12" fill="#E6F2EC">JavaScript</text><rect x="150" y="110" width="9" height="10" rx="2" fill="#f1e05a"/><text x="169" y="120" font-size="11.5" fill="#7E948C">3.7%</text><text x="18" y="146" font-size="12" fill="#E6F2EC">CSS</text><rect x="150" y="136" width="6" height="10" rx="2" fill="#563d7c"/><text x="166" y="146" font-size="11.5" fill="#7E948C">2.4%</text><text x="18" y="172" font-size="12" fill="#E6F2EC">TypeScript</text><rect x="150" y="162" width="4" height="10" rx="2" fill="#3178C6"/><text x="164" y="172" font-size="11.5" fill="#7E948C">1.8%</text><text x="18" y="198" font-size="12" fill="#E6F2EC">C</text><rect x="150" y="188" width="4" height="10" rx="2" fill="#555555"/><text x="164" y="198" font-size="11.5" fill="#7E948C">1.4%</text><text x="18" y="224" font-size="12" fill="#E6F2EC">Java</text><rect x="150" y="214" width="4" height="10" rx="2" fill="#b07219"/><text x="164" y="224" font-size="11.5" fill="#7E948C">1.3%</text><text x="18" y="250" font-size="12" fill="#E6F2EC">C++</text><rect x="150" y="240" width="4" height="10" rx="2" fill="#f34b7d"/><text x="164" y="250" font-size="11.5" fill="#7E948C">0.7%</text></svg>
